<svg width="151" height="20" viewBox="0 0 151 20" fill="none" xmlns="http://www.w3.org/2000/svg">
<path d="M8.242 0.592H11.57L13.676 6.702L15.808 0.592H19.11L15.938 8.99L18.278 14.866L23.504 0.539999H27.404L20.02 19H16.926L13.676 11.252L10.452 19H7.358L0 0.539999H3.848L9.1 14.866L11.388 8.99L8.242 0.592ZM34.227 19.26C33.135 19.26 32.147 19.078 31.263 18.714C30.379 18.3327 29.625 17.8213 29.001 17.18C28.377 16.5213 27.8916 15.776 27.545 14.944C27.2156 14.0947 27.051 13.202 27.051 12.266C27.051 10.966 27.337 9.77867 27.909 8.704C28.4983 7.62933 29.3303 6.77133 30.405 6.13C31.497 5.47133 32.7796 5.142 34.253 5.142C35.7436 5.142 37.0176 5.47133 38.075 6.13C39.1323 6.77133 39.9383 7.62933 40.493 8.704C41.065 9.76133 41.351 10.9053 41.351 12.136C41.351 12.344 41.3423 12.5607 41.325 12.786C41.3076 12.994 41.2903 13.1673 41.273 13.306H30.743C30.8123 13.9993 31.0116 14.606 31.341 15.126C31.6876 15.646 32.121 16.0447 32.641 16.322C33.1783 16.582 33.7503 16.712 34.357 16.712C35.0503 16.712 35.7003 16.5473 36.307 16.218C36.931 15.8713 37.3556 15.4207 37.581 14.866L40.571 15.698C40.2416 16.3913 39.765 17.0067 39.141 17.544C38.5343 18.0813 37.815 18.506 36.983 18.818C36.151 19.1127 35.2323 19.26 34.227 19.26ZM30.665 11.096H37.789C37.7196 10.4027 37.5203 9.80467 37.191 9.302C36.879 8.782 36.463 8.38333 35.943 8.106C35.423 7.81133 34.8423 7.664 34.201 7.664C33.577 7.664 33.005 7.81133 32.485 8.106C31.9823 8.38333 31.5663 8.782 31.237 9.302C30.925 9.80467 30.7343 10.4027 30.665 11.096ZM52.0014 19.26C50.9614 19.26 50.0341 19.026 49.2194 18.558C48.4048 18.09 47.7634 17.4487 47.2954 16.634V19H44.2534V0.0199995H47.7374V7.768C48.2228 6.95333 48.8554 6.312 49.6354 5.844C50.4328 5.376 51.3601 5.142 52.4174 5.142C53.3014 5.142 54.1074 5.33267 54.8354 5.714C55.5634 6.078 56.1874 6.58933 56.7074 7.248C57.2448 7.90667 57.6521 8.66067 57.9294 9.51C58.2241 10.3593 58.3714 11.2693 58.3714 12.24C58.3714 13.2107 58.2068 14.1207 57.8774 14.97C57.5654 15.8193 57.1234 16.5733 56.5514 17.232C55.9794 17.8733 55.3034 18.376 54.5234 18.74C53.7608 19.0867 52.9201 19.26 52.0014 19.26ZM51.0394 16.296C51.5941 16.296 52.0968 16.192 52.5474 15.984C53.0154 15.7587 53.4141 15.464 53.7434 15.1C54.0901 14.736 54.3501 14.3113 54.5234 13.826C54.7141 13.3233 54.8094 12.8033 54.8094 12.266C54.8094 11.5207 54.6534 10.836 54.3414 10.212C54.0468 9.57067 53.6308 9.05933 53.0934 8.678C52.5734 8.29667 51.9581 8.106 51.2474 8.106C50.7448 8.106 50.2594 8.22733 49.7914 8.47C49.3408 8.69533 48.9334 9.00733 48.5694 9.406C48.2228 9.80467 47.9454 10.2553 47.7374 10.758V14.008C47.8414 14.3547 48.0061 14.6667 48.2314 14.944C48.4741 15.2213 48.7514 15.464 49.0634 15.672C49.3754 15.8627 49.6961 16.0187 50.0254 16.14C50.3721 16.244 50.7101 16.296 51.0394 16.296Z" fill="#2196F3"/>
<path d="M79.874 5.376C79.7527 5.25467 79.5274 5.09 79.198 4.882C78.886 4.674 78.496 4.47467 78.028 4.284C77.5774 4.09333 77.0834 3.92867 76.546 3.79C76.0087 3.634 75.4627 3.556 74.908 3.556C73.9374 3.556 73.2007 3.738 72.698 4.102C72.2127 4.466 71.97 4.97733 71.97 5.636C71.97 6.13867 72.126 6.53733 72.438 6.832C72.75 7.12667 73.218 7.378 73.842 7.586C74.466 7.794 75.246 8.01933 76.182 8.262C77.3954 8.55667 78.444 8.92067 79.328 9.354C80.2294 9.77 80.914 10.3247 81.382 11.018C81.8674 11.694 82.11 12.5953 82.11 13.722C82.11 14.71 81.928 15.5593 81.564 16.27C81.2 16.9633 80.6974 17.5267 80.056 17.96C79.4147 18.3933 78.6867 18.714 77.872 18.922C77.0574 19.1127 76.1907 19.208 75.272 19.208C74.3534 19.208 73.4347 19.1127 72.516 18.922C71.5974 18.7313 70.7134 18.4627 69.864 18.116C69.0147 17.752 68.2347 17.3187 67.524 16.816L69.11 13.722C69.266 13.878 69.5434 14.086 69.942 14.346C70.3407 14.5887 70.826 14.84 71.398 15.1C71.97 15.3427 72.594 15.5507 73.27 15.724C73.946 15.8973 74.6307 15.984 75.324 15.984C76.2947 15.984 77.0314 15.8193 77.534 15.49C78.0367 15.1607 78.288 14.6927 78.288 14.086C78.288 13.5313 78.0887 13.098 77.69 12.786C77.2914 12.474 76.7367 12.2053 76.026 11.98C75.3154 11.7373 74.4747 11.4773 73.504 11.2C72.3427 10.8707 71.372 10.5067 70.592 10.108C69.812 9.692 69.2314 9.172 68.85 8.548C68.4687 7.924 68.278 7.144 68.278 6.208C68.278 4.94267 68.5727 3.88533 69.162 3.036C69.7687 2.16933 70.5834 1.51933 71.606 1.086C72.6287 0.635333 73.764 0.409999 75.012 0.409999C75.8787 0.409999 76.6934 0.505332 77.456 0.695999C78.236 0.886666 78.964 1.138 79.64 1.45C80.316 1.762 80.9227 2.1 81.46 2.464L79.874 5.376ZM93.1227 18.298C92.828 18.4193 92.4727 18.558 92.0567 18.714C91.6407 18.87 91.19 18.9913 90.7047 19.078C90.2367 19.182 89.76 19.234 89.2747 19.234C88.6333 19.234 88.044 19.1213 87.5067 18.896C86.9693 18.6707 86.536 18.3153 86.2067 17.83C85.8947 17.3273 85.7387 16.6773 85.7387 15.88V8.054H83.9447V5.376H85.7387V0.956H89.2227V5.376H92.0827V8.054H89.2227V14.71C89.24 15.178 89.37 15.516 89.6127 15.724C89.8553 15.932 90.1587 16.036 90.5227 16.036C90.8867 16.036 91.242 15.9753 91.5887 15.854C91.9353 15.7327 92.2127 15.6287 92.4207 15.542L93.1227 18.298ZM95.5872 13.904V5.376H99.0712V13.15C99.0712 14.19 99.2618 14.9787 99.6432 15.516C100.025 16.036 100.588 16.296 101.333 16.296C101.784 16.296 102.226 16.2093 102.659 16.036C103.11 15.8453 103.517 15.568 103.881 15.204C104.263 14.84 104.583 14.3807 104.843 13.826V5.376H108.327V15.1C108.327 15.464 108.388 15.724 108.509 15.88C108.648 16.036 108.865 16.1313 109.159 16.166V19C108.813 19.052 108.518 19.0867 108.275 19.104C108.05 19.1387 107.842 19.156 107.651 19.156C107.027 19.156 106.516 19.0173 106.117 18.74C105.736 18.4453 105.511 18.0467 105.441 17.544L105.363 16.452C104.757 17.3707 103.977 18.0727 103.023 18.558C102.07 19.026 101.021 19.26 99.8772 19.26C98.4732 19.26 97.4072 18.8093 96.6792 17.908C95.9512 16.9893 95.5872 15.6547 95.5872 13.904ZM111.737 12.188C111.737 10.8707 111.997 9.68333 112.517 8.626C113.037 7.55133 113.757 6.702 114.675 6.078C115.594 5.454 116.643 5.142 117.821 5.142C118.827 5.142 119.728 5.39333 120.525 5.896C121.34 6.38133 121.973 7.00533 122.423 7.768V0.0199995H125.907V15.1C125.907 15.464 125.968 15.724 126.089 15.88C126.211 16.036 126.419 16.1313 126.713 16.166V19C126.107 19.1213 125.613 19.182 125.231 19.182C124.607 19.182 124.087 19.026 123.671 18.714C123.273 18.402 123.047 17.9947 122.995 17.492L122.943 16.634C122.441 17.4833 121.756 18.1333 120.889 18.584C120.04 19.0347 119.147 19.26 118.211 19.26C117.275 19.26 116.409 19.078 115.611 18.714C114.831 18.35 114.147 17.8473 113.557 17.206C112.985 16.5647 112.535 15.8193 112.205 14.97C111.893 14.1033 111.737 13.176 111.737 12.188ZM122.423 14.008V10.758C122.25 10.2553 121.973 9.80467 121.591 9.406C121.21 9.00733 120.785 8.69533 120.317 8.47C119.849 8.22733 119.381 8.106 118.913 8.106C118.376 8.106 117.891 8.21867 117.457 8.444C117.024 8.66933 116.643 8.97267 116.313 9.354C116.001 9.73533 115.759 10.1773 115.585 10.68C115.429 11.1827 115.351 11.7113 115.351 12.266C115.351 12.8207 115.438 13.3493 115.611 13.852C115.802 14.3373 116.071 14.762 116.417 15.126C116.764 15.49 117.163 15.776 117.613 15.984C118.081 16.192 118.584 16.296 119.121 16.296C119.451 16.296 119.78 16.244 120.109 16.14C120.456 16.0187 120.777 15.8627 121.071 15.672C121.383 15.464 121.652 15.2213 121.877 14.944C122.12 14.6493 122.302 14.3373 122.423 14.008ZM130.107 19V5.376H133.591V19H130.107ZM130.107 3.478V0.0199995H133.591V3.478H130.107ZM143.806 19.26C142.697 19.26 141.7 19.078 140.816 18.714C139.932 18.3327 139.178 17.8127 138.554 17.154C137.948 16.4953 137.48 15.7413 137.15 14.892C136.821 14.0427 136.656 13.15 136.656 12.214C136.656 11.2607 136.821 10.3593 137.15 9.51C137.48 8.66067 137.948 7.90667 138.554 7.248C139.178 6.58933 139.932 6.078 140.816 5.714C141.7 5.33267 142.697 5.142 143.806 5.142C144.916 5.142 145.904 5.33267 146.77 5.714C147.654 6.078 148.408 6.58933 149.032 7.248C149.656 7.90667 150.124 8.66067 150.436 9.51C150.766 10.3593 150.93 11.2607 150.93 12.214C150.93 13.15 150.766 14.0427 150.436 14.892C150.124 15.7413 149.656 16.4953 149.032 17.154C148.426 17.8127 147.68 18.3327 146.796 18.714C145.912 19.078 144.916 19.26 143.806 19.26ZM140.244 12.214C140.244 13.0113 140.4 13.722 140.712 14.346C141.024 14.9527 141.449 15.4293 141.986 15.776C142.524 16.1227 143.13 16.296 143.806 16.296C144.465 16.296 145.063 16.1227 145.6 15.776C146.138 15.412 146.562 14.9267 146.874 14.32C147.204 13.696 147.368 12.9853 147.368 12.188C147.368 11.408 147.204 10.706 146.874 10.082C146.562 9.458 146.138 8.97267 145.6 8.626C145.063 8.27933 144.465 8.106 143.806 8.106C143.13 8.106 142.524 8.288 141.986 8.652C141.449 8.99867 141.024 9.484 140.712 10.108C140.4 10.7147 140.244 11.4167 140.244 12.214Z" fill="black"/>
</svg>
